<svg width="29" height="31" viewBox="0 0 29 31" fill="none" xmlns="http://www.w3.org/2000/svg">
<path d="M28.7956 15.0188L13.6061 0.198137C13.4785 0.0735938 13.2987 0 13.1189 0H0.690165C0.411779 0 0.156592 0.164171 0.0521974 0.413258C-0.0521974 0.668006 0.0057997 0.95672 0.20299 1.1492L14.9053 15.5L0.20299 29.8508C0.0753962 29.9753 0 30.1508 0 30.3263C0 30.7 0.307385 31 0.690165 31H13.1189C13.3045 31 13.4785 30.9264 13.6061 30.8019L28.7956 15.9755C29.0681 15.7095 29.0681 15.2849 28.7956 15.0188ZM12.8348 29.6527H2.35468L16.3668 15.9755C16.6336 15.7095 16.6336 15.2849 16.3668 15.0245L2.35468 1.34733H12.829L27.3282 15.5L12.8348 29.6527Z" fill="white"/>
</svg>