<svg width="29" height="31" viewBox="0 0 29 31" fill="none" xmlns="http://www.w3.org/2000/svg">
<path d="M0.204442 15.9812L15.3939 30.8019C15.5215 30.9264 15.7013 31 15.8811 31L28.3098 31C28.5882 31 28.8434 30.8358 28.9478 30.5867C29.0522 30.332 28.9942 30.0433 28.797 29.8508L14.0947 15.5L28.797 1.1492C28.9246 1.02466 29 0.849167 29 0.673674C29 0.300043 28.6926 7.57565e-06 28.3098 7.50872e-06L15.8811 5.33561e-06C15.6955 5.30316e-06 15.5215 0.0736003 15.3939 0.198143L0.204442 15.0245C-0.068143 15.2905 -0.0681431 15.7151 0.204442 15.9812ZM16.1652 1.34734L26.6453 1.34734L12.6332 15.0245C12.3664 15.2905 12.3664 15.7151 12.6332 15.9755L26.6453 29.6527L16.171 29.6527L1.67177 15.5L16.1652 1.34734Z" fill="white"/>
</svg>
